<?xml version="1.0" encoding="utf-8"?>
<!-- Generator: Adobe Illustrator 22.1.0, SVG Export Plug-In . SVG Version: 6.00 Build 0)  -->
<svg version="1.0" id="Layer_1" xmlns:svg="http://www.w3.org/2000/svg"
	 xmlns="http://www.w3.org/2000/svg" xmlns:xlink="http://www.w3.org/1999/xlink" x="0px" y="0px" width="255.1px" height="226.8px"
	 viewBox="0 0 255.1 226.8" style="enable-background:new 0 0 255.1 226.8;" xml:space="preserve">
<style type="text/css">
	.st0{stroke:#000000;stroke-width:1.44;}
	.st1{stroke:#000000;stroke-width:4;}
	.st2{stroke:#000000;stroke-width:3;}
	.st3{stroke:#000000;stroke-width:5;}
	.st4{stroke:#000000;stroke-width:1.1338;}
	.st5{stroke:#000000;}
	.st6{stroke:#000000;stroke-width:2.8346;}
	.st7{stroke:#000000;stroke-width:2.088;}
	.st8{fill:none;stroke:#000000;stroke-width:2.304;stroke-linecap:round;}
	.st9{fill:none;stroke:#000000;stroke-width:1.728;stroke-linecap:round;}
	.st10{fill:none;stroke:#FFFFFF;stroke-width:0.5;}
</style>
<g>
	<g transform="translate(66.96,16.56)">
		<g id="copper1">
			<g id="copper0">
				<circle id="connector0pin" class="st0" cx="5" cy="5" r="2.1"/>
			</g>
		</g>
	</g>
</g>
<g>
	<g transform="translate(127.44,16.56)">
		<g transform="matrix(0,1,-1,0,0,0)">
			<g id="copper1_1_">
				<g id="copper0_1_">
					<circle id="connector0pin_1_" class="st0" cx="5" cy="5" r="2.1"/>
				</g>
			</g>
		</g>
	</g>
</g>
<g>
	<g transform="translate(210.96,16.56)">
		<g id="copper1_2_">
			<g id="copper0_2_">
				<circle id="connector0pin_2_" class="st0" cx="5" cy="5" r="2.1"/>
			</g>
		</g>
	</g>
</g>
<g>
	<g transform="translate(105.84,66.96)">
		<g transform="matrix(0,1,-1,0,0,0)">
			<g id="copper1_3_">
				<g id="copper0_3_">
					<circle id="connector0pin_3_" class="st1" cx="5" cy="5" r="2.1"/>
				</g>
			</g>
		</g>
	</g>
</g>
<g>
	<g transform="translate(16.56,66.96)">
		<g id="copper1_4_">
			<g id="copper0_4_">
				<circle id="connector0pin_4_" class="st1" cx="5" cy="5" r="2.1"/>
			</g>
		</g>
	</g>
</g>
<g>
	<g transform="translate(189.36,74.16)">
		<g id="copper1_5_">
			<g id="copper0_5_">
				<circle id="connector0pin_5_" class="st1" cx="5" cy="5" r="2.1"/>
			</g>
		</g>
	</g>
</g>
<g>
	<g transform="translate(74.16,160.56)">
		<g id="copper1_6_">
			<g id="copper0_6_">
				<circle id="connector0pin_6_" class="st1" cx="5" cy="5" r="2.1"/>
			</g>
		</g>
	</g>
</g>
<g>
	<g transform="translate(160.56,167.76)">
		<g id="copper1_7_">
			<g id="copper0_7_">
				<circle id="connector0pin_7_" class="st1" cx="5" cy="5" r="2.1"/>
			</g>
		</g>
	</g>
</g>
<g>
	<g transform="translate(203.76,196.56)">
		<g id="copper1_8_">
			<g id="copper0_8_">
				<circle id="connector0pin_8_" class="st1" cx="5" cy="5" r="2.1"/>
			</g>
		</g>
	</g>
</g>
<g>
	<g transform="translate(187.954,42.9976)">
		<g id="copper1_9_">
			<g id="copper0_9_">
				<circle id="connector0pad" class="st1" cx="20.8" cy="15.6" r="2"/>
				<circle id="connector1pad" class="st1" cx="2.4" cy="15.6" r="2"/>
				<circle id="connector2pad" class="st1" cx="20.8" cy="2.8" r="2"/>
				<circle id="connector3pad" class="st1" cx="2.4" cy="2.8" r="2"/>
			</g>
		</g>
	</g>
</g>
<g>
	<g transform="translate(131.667,43.0016)">
		<g id="copper1_10_">
			<g id="copper0_10_">
				<circle id="connector0pad_1_" class="st1" cx="20.8" cy="15.6" r="2"/>
				<circle id="connector1pad_1_" class="st1" cx="2.4" cy="15.6" r="2"/>
				<circle id="connector2pad_1_" class="st1" cx="20.8" cy="2.8" r="2"/>
				<circle id="connector3pad_1_" class="st1" cx="2.4" cy="2.8" r="2"/>
			</g>
		</g>
	</g>
</g>
<g>
	<g transform="translate(81.4392,43.0016)">
		<g id="copper1_11_">
			<g id="copper0_11_">
				<circle id="connector0pad_2_" class="st1" cx="20.8" cy="15.6" r="2"/>
				<circle id="connector1pad_2_" class="st1" cx="2.4" cy="15.6" r="2"/>
				<circle id="connector2pad_2_" class="st1" cx="20.8" cy="2.8" r="2"/>
				<circle id="connector3pad_2_" class="st1" cx="2.4" cy="2.8" r="2"/>
			</g>
		</g>
	</g>
</g>
<g>
	<g transform="translate(31.0394,43.0016)">
		<g id="copper1_12_">
			<g id="copper0_12_">
				<circle id="connector0pad_3_" class="st1" cx="20.8" cy="15.6" r="2"/>
				<circle id="connector1pad_3_" class="st1" cx="2.4" cy="15.6" r="2"/>
				<circle id="connector2pad_3_" class="st1" cx="20.8" cy="2.8" r="2"/>
				<circle id="connector3pad_3_" class="st1" cx="2.4" cy="2.8" r="2"/>
			</g>
		</g>
	</g>
</g>
<g>
	<g transform="translate(31.0886,112.28)">
		<g id="copper1_13_">
			<g id="copper0_13_">
				<circle id="connector0pad_4_" class="st2" cx="20.8" cy="15.6" r="2"/>
				<circle id="connector1pad_4_" class="st2" cx="2.4" cy="15.6" r="2"/>
				<circle id="connector2pad_4_" class="st2" cx="20.8" cy="2.8" r="2"/>
				<circle id="connector3pad_4_" class="st2" cx="2.4" cy="2.8" r="2"/>
			</g>
		</g>
	</g>
</g>
<g>
	<g transform="translate(81.4888,112.28)">
		<g id="copper1_14_">
			<g id="copper0_14_">
				<circle id="connector0pad_5_" class="st3" cx="20.8" cy="15.6" r="2"/>
				<circle id="connector1pad_5_" class="st3" cx="2.4" cy="15.6" r="2"/>
				<circle id="connector2pad_5_" class="st3" cx="20.8" cy="2.8" r="2"/>
				<circle id="connector3pad_5_" class="st3" cx="2.4" cy="2.8" r="2"/>
			</g>
		</g>
	</g>
</g>
<g>
	<g transform="translate(131.754,112.198)">
		<g id="copper1_15_">
			<g id="copper0_15_">
				<circle id="connector0pad_6_" class="st1" cx="20.8" cy="15.6" r="2"/>
				<circle id="connector1pad_6_" class="st1" cx="2.4" cy="15.6" r="2"/>
				<circle id="connector2pad_6_" class="st1" cx="20.8" cy="2.8" r="2"/>
				<circle id="connector3pad_6_" class="st1" cx="2.4" cy="2.8" r="2"/>
			</g>
		</g>
	</g>
</g>
<g>
	<g transform="translate(187.934,112.08)">
		<g id="copper1_16_">
			<g id="copper0_16_">
				<circle id="connector0pad_7_" class="st3" cx="20.8" cy="15.6" r="2"/>
				<circle id="connector1pad_7_" class="st3" cx="2.4" cy="15.6" r="2"/>
				<circle id="connector2pad_7_" class="st3" cx="20.8" cy="2.8" r="2"/>
				<circle id="connector3pad_7_" class="st3" cx="2.4" cy="2.8" r="2"/>
			</g>
		</g>
	</g>
</g>
<g>
	<g transform="translate(31.0394,172.602)">
		<g id="copper1_17_">
			<g id="copper0_17_">
				<circle id="connector0pad_8_" class="st1" cx="20.8" cy="15.6" r="2"/>
				<circle id="connector1pad_8_" class="st1" cx="2.4" cy="15.6" r="2"/>
				<circle id="connector2pad_8_" class="st1" cx="20.8" cy="2.8" r="2"/>
				<circle id="connector3pad_8_" class="st3" cx="2.4" cy="2.8" r="2"/>
			</g>
		</g>
	</g>
</g>
<g>
	<g transform="translate(81.4392,172.602)">
		<g id="copper1_18_">
			<g id="copper0_18_">
				<circle id="connector0pad_9_" class="st1" cx="20.8" cy="15.6" r="2"/>
				<circle id="connector1pad_9_" class="st1" cx="2.4" cy="15.6" r="2"/>
				<circle id="connector2pad_9_" class="st1" cx="20.8" cy="2.8" r="2"/>
				<circle id="connector3pad_9_" class="st1" cx="2.4" cy="2.8" r="2"/>
			</g>
		</g>
	</g>
</g>
<g>
	<g transform="translate(131.72,172.602)">
		<g id="copper1_19_">
			<g id="copper0_19_">
				<circle id="connector0pad_10_" class="st1" cx="20.8" cy="15.6" r="2"/>
				<circle id="connector1pad_10_" class="st1" cx="2.4" cy="15.6" r="2"/>
				<circle id="connector2pad_10_" class="st1" cx="20.8" cy="2.8" r="2"/>
				<circle id="connector3pad_10_" class="st1" cx="2.4" cy="2.8" r="2"/>
			</g>
		</g>
	</g>
</g>
<g>
	<g transform="translate(187.839,172.602)">
		<g id="copper1_20_">
			<g id="copper0_20_">
				<circle id="connector0pad_11_" class="st1" cx="20.8" cy="15.6" r="2"/>
				<circle id="connector1pad_11_" class="st1" cx="2.4" cy="15.6" r="2"/>
				<circle id="connector2pad_11_" class="st1" cx="20.8" cy="2.8" r="2"/>
				<circle id="connector3pad_11_" class="st1" cx="2.4" cy="2.8" r="2"/>
			</g>
		</g>
	</g>
</g>
<g>
	<g transform="translate(81.36,66.96)">
		<g id="copper1_21_">
			<g id="copper0_21_">
				<circle id="connector0pin_9_" class="st1" cx="5" cy="5" r="2.1"/>
			</g>
		</g>
	</g>
</g>
<g>
	<g transform="translate(174.96,62.64)">
		<g transform="matrix(0,-1,1,0,0,0)">
			<g id="copper1_22_">
				<g id="copper0_22_">
					<circle id="connector0pin_10_" class="st1" cx="5" cy="5" r="2.1"/>
				</g>
			</g>
		</g>
	</g>
</g>
<g>
	<g transform="translate(69.84,52.56)">
		<g transform="matrix(0,1,-1,0,0,0)">
			<g id="copper1_23_">
				<g id="copper0_23_">
					<circle id="connector0pin_11_" class="st1" cx="5" cy="5" r="2.1"/>
				</g>
			</g>
		</g>
	</g>
</g>
<g>
	<g transform="translate(167.76,16.56)">
		<g id="copper1_24_">
			<g id="copper0_24_">
				<circle id="connector0pin_12_" class="st0" cx="5" cy="5" r="2.1"/>
			</g>
		</g>
	</g>
</g>
<g>
	<g transform="translate(138.96,84.24)">
		<g transform="matrix(0,-1,1,0,0,0)">
			<g id="copper1_25_">
				<g id="copper0_25_">
					<circle id="connector0pin_13_" class="st1" cx="5" cy="5" r="2.1"/>
				</g>
			</g>
		</g>
	</g>
</g>
<g>
	<g transform="translate(19.44,163.44)">
		<g transform="matrix(-1,0,0,-1,0,0)">
			<g id="copper1_26_">
				<g id="copper0_26_">
					<circle id="connector0pin_14_" class="st3" cx="5" cy="5" r="2.1"/>
				</g>
			</g>
		</g>
	</g>
</g>
<g>
	<g transform="translate(110.16,167.76)">
		<g id="copper1_27_">
			<g id="copper0_27_">
				<circle id="connector0pin_15_" class="st1" cx="5" cy="5" r="2.1"/>
			</g>
		</g>
	</g>
</g>
<g>
	<g transform="translate(210.96,131.76)">
		<g id="copper1_28_">
			<g id="copper0_28_">
				<circle id="connector0pin_16_" class="st0" cx="5" cy="5" r="2.1"/>
			</g>
		</g>
	</g>
</g>
<g>
	<g transform="translate(228.24,66.96)">
		<g transform="matrix(0,1,-1,0,0,0)">
			<g id="copper1_29_">
				<g id="copper0_29_">
					<circle id="connector0pin_17_" class="st1" cx="5" cy="5" r="2.1"/>
				</g>
			</g>
		</g>
	</g>
</g>
<g>
	<g transform="translate(162.504,89.1)">
		<g transform="matrix(0,-1,1,0,0,0)">
			<g id="copper1_30_">
				<circle id="connector0pin_18_" class="st1" cx="2.7" cy="3.1" r="2"/>
				<circle id="connector1pin" class="st1" cx="31.5" cy="3.1" r="2"/>
			</g>
		</g>
	</g>
</g>
<g>
	<g transform="translate(112.104,89.1)">
		<g transform="matrix(-2.22045e-16,-1,1,-2.22045e-16,0,0)">
			<g id="copper1_31_">
				<circle id="connector0pin_19_" class="st1" cx="2.7" cy="3.1" r="2"/>
				<circle id="connector1pin_1_" class="st1" cx="31.5" cy="3.1" r="2"/>
			</g>
		</g>
	</g>
</g>
<g>
	<g transform="translate(234.504,110.7)">
		<g transform="matrix(0,-1,1,0,0,0)">
			<g id="copper1_32_">
				<circle id="connector0pin_20_" class="st1" cx="2.7" cy="3.1" r="2"/>
				<circle id="connector1pin_2_" class="st1" cx="31.5" cy="3.1" r="2"/>
			</g>
		</g>
	</g>
</g>
<g>
	<g transform="translate(54.504,96.3)">
		<g transform="matrix(0,-1,1,0,0,0)">
			<g id="copper1_33_">
				<circle id="connector0pin_21_" class="st1" cx="2.7" cy="3.1" r="2"/>
				<circle id="connector1pin_3_" class="st1" cx="31.5" cy="3.1" r="2"/>
			</g>
		</g>
	</g>
</g>
<g>
	<g transform="translate(208.946,90.2128)">
		<g transform="matrix(0,1,-1,0,0,0)">
			<g id="copper1_34_">
				<circle id="connector1pad_12_" class="st4" cx="8.8" cy="10.6" r="1.7"/>
				
					<rect x="7.1" y="9.9" transform="matrix(2.535182e-06 1 -1 2.535182e-06 20.4668 2.8246)" class="st1" width="3.4" height="3.4"/>
				<circle id="connector0pad_12_" class="st1" cx="8.8" cy="3.5" r="1.7"/>
			</g>
		</g>
	</g>
</g>
<g>
	<g transform="translate(152.901,90.1656)">
		<g transform="matrix(0,1,-1,0,0,0)">
			<g id="copper1_35_">
				<circle id="connector1pad_13_" class="st1" cx="8.8" cy="10.6" r="1.7"/>
				
					<rect x="7.1" y="8.9" transform="matrix(2.535182e-06 1 -1 2.535182e-06 19.4668 1.8246)" class="st1" width="3.4" height="3.4"/>
				<circle id="connector0pad_13_" class="st1" cx="8.8" cy="3.5" r="1.7"/>
			</g>
		</g>
	</g>
</g>
<g>
	<g transform="translate(102.501,90.1656)">
		<g transform="matrix(0,1,-1,0,0,0)">
			<g id="copper1_36_">
				<circle id="connector1pad_14_" class="st2" cx="8.8" cy="10.6" r="1.7"/>
				<rect x="7" y="8.7" transform="matrix(2.535182e-06 1 -1 2.535182e-06 19.1046 1.6246)" class="st2" width="3.4" height="3.4"/>
				<circle id="connector0pad_14_" class="st2" cx="8.8" cy="3.5" r="1.7"/>
			</g>
		</g>
	</g>
</g>
<g>
	<g transform="translate(53.9464,92.0128)">
		<g transform="matrix(0,1,-1,0,0,0)">
			<g id="copper1_37_">
				<circle id="connector1pad_15_" class="st4" cx="8.8" cy="10.6" r="1.7"/>
				<rect x="7" y="8.7" transform="matrix(2.535182e-06 1 -1 2.535182e-06 19.1046 1.6246)" class="st1" width="3.4" height="3.4"/>
				<circle id="connector0pad_15_" class="st1" cx="8.8" cy="3.3" r="1.7"/>
			</g>
		</g>
	</g>
</g>
<g>
	<g transform="translate(208.98,146.891)">
		<g transform="matrix(0,1,-1,0,0,0)">
			<g id="copper1_38_">
				<circle id="connector1pad_16_" class="st2" cx="8.8" cy="10.6" r="1.7"/>
				
					<rect x="7.1" y="8.9" transform="matrix(2.535182e-06 1 -1 2.535182e-06 19.4668 1.8246)" class="st2" width="3.4" height="3.4"/>
				<circle id="connector0pad_16_" class="st2" cx="8.8" cy="3.5" r="1.7"/>
			</g>
		</g>
	</g>
</g>
<g>
	<g transform="translate(152.833,146.891)">
		<g transform="matrix(0,1,-1,0,0,0)">
			<g id="copper1_39_">
				<circle id="connector1pad_17_" class="st5" cx="8.8" cy="10.6" r="1.7"/>
				
					<rect x="7.1" y="8.9" transform="matrix(2.535182e-06 1 -1 2.535182e-06 19.4668 1.8246)" class="st6" width="3.4" height="3.4"/>
				<circle id="connector0pad_17_" class="st6" cx="8.8" cy="3.5" r="1.7"/>
			</g>
		</g>
	</g>
</g>
<g>
	<g transform="translate(102.433,146.891)">
		<g transform="matrix(0,1,-1,0,0,0)">
			<g id="copper1_40_">
				<circle id="connector1pad_18_" class="st2" cx="8.8" cy="10.6" r="1.7"/>
				
					<rect x="7.1" y="8.9" transform="matrix(2.535182e-06 1 -1 2.535182e-06 19.4668 1.8246)" class="st2" width="3.4" height="3.4"/>
				<circle id="connector0pad_18_" class="st2" cx="8.8" cy="3.5" r="1.7"/>
			</g>
		</g>
	</g>
</g>
<g>
	<g transform="translate(53.8485,146.891)">
		<g transform="matrix(0,1,-1,0,0,0)">
			<g id="copper1_41_">
				<circle id="connector1pad_19_" class="st2" cx="8.8" cy="10.6" r="1.7"/>
				
					<rect x="7.1" y="8.9" transform="matrix(2.535182e-06 1 -1 2.535182e-06 19.4668 1.8246)" class="st2" width="3.4" height="3.4"/>
				<circle id="connector0pad_19_" class="st2" cx="8.8" cy="3.5" r="1.7"/>
			</g>
		</g>
	</g>
</g>
<g>
	<g transform="translate(183.672,10.872)">
		<g id="copper1_42_">
			<g id="copper0_30_">
				<circle id="connector2pad_12_" class="st1" cx="3.5" cy="17.9" r="2.5"/>
				<rect x="1" y="1" class="st7" width="5" height="5"/>
				<circle id="connector0pad_20_" class="st1" cx="3.5" cy="3.5" r="2.5"/>
				<circle id="connector1pad_20_" class="st1" cx="17.9" cy="10.7" r="2.5"/>
			</g>
		</g>
	</g>
</g>
<g>
	<g transform="translate(140.472,10.872)">
		<g id="copper1_43_">
			<g id="copper0_31_">
				<circle id="connector2pad_13_" class="st1" cx="3.5" cy="17.9" r="2.5"/>
				<rect x="1" y="1" class="st7" width="5" height="5"/>
				<circle id="connector0pad_21_" class="st1" cx="3.5" cy="3.5" r="2.5"/>
				<circle id="connector1pad_21_" class="st1" cx="17.9" cy="10.7" r="2.5"/>
			</g>
		</g>
	</g>
</g>
<g>
	<g transform="translate(90.072,10.872)">
		<g id="copper1_44_">
			<g id="copper0_32_">
				<circle id="connector2pad_14_" class="st1" cx="3.5" cy="17.9" r="2.5"/>
				<rect x="1" y="1" class="st7" width="5" height="5"/>
				<circle id="connector0pad_22_" class="st1" cx="3.5" cy="3.5" r="2.5"/>
				<circle id="connector1pad_22_" class="st1" cx="17.9" cy="10.7" r="2.5"/>
			</g>
		</g>
	</g>
</g>
<g>
	<g transform="translate(17.496,184.5)">
		<g transform="matrix(0,1,-1,0,0,0)">
			<g id="copper1_45_">
				<circle id="connector0pin_22_" class="st3" cx="2.7" cy="3.1" r="2"/>
				<circle id="connector1pin_4_" class="st1" cx="31.5" cy="3.1" r="2"/>
			</g>
		</g>
	</g>
</g>
<g>
	<g transform="translate(75.096,177.3)">
		<g transform="matrix(0,1,-1,0,0,0)">
			<g id="copper1_46_">
				<circle id="connector0pin_23_" class="st2" cx="2.7" cy="3.1" r="2"/>
				<circle id="connector1pin_5_" class="st2" cx="31.5" cy="3.1" r="2"/>
			</g>
		</g>
	</g>
</g>
<g>
	<g transform="translate(68.904,146.7)">
		<g transform="matrix(0,-1,1,0,0,0)">
			<g id="copper1_47_">
				<circle id="connector0pin_24_" class="st1" cx="2.7" cy="3.1" r="2"/>
				<circle id="connector1pin_6_" class="st1" cx="31.5" cy="3.1" r="2"/>
			</g>
		</g>
	</g>
</g>
<g>
	<g transform="translate(183.096,69.3)">
		<g transform="matrix(2.22045e-16,1,-1,2.22045e-16,0,0)">
			<g id="copper1_48_">
				<circle id="connector0pin_25_" class="st1" cx="2.7" cy="3.1" r="2"/>
				<circle id="connector1pin_7_" class="st1" cx="31.5" cy="3.1" r="2"/>
			</g>
		</g>
	</g>
</g>
<g>
	<g transform="translate(132.696,69.3)">
		<g transform="matrix(0,1,-1,0,0,0)">
			<g id="copper1_49_">
				<circle id="connector0pin_26_" class="st3" cx="2.7" cy="3.1" r="2"/>
				<path id="connector1pin_8_" class="st3" d="M31.5,1.1c1.1,0,2,0.9,2,2c0,0.3-0.9,2-2,2s-2-0.9-2-2S30.4,1.1,31.5,1.1z"/>
			</g>
		</g>
	</g>
</g>
<g>
	<g transform="translate(68.904,103.5)">
		<g transform="matrix(0,-1,1,0,0,0)">
			<g id="copper1_50_">
				<circle id="connector0pin_27_" class="st1" cx="2.7" cy="3.1" r="2"/>
				<circle id="connector1pin_9_" class="st1" cx="31.5" cy="3.1" r="2"/>
			</g>
		</g>
	</g>
</g>
<g>
	<g transform="translate(14.5193,103.502)">
		<g transform="matrix(0.707107,-0.707107,0.707107,0.707107,0,0)">
			<g id="copper1_51_">
				
					<ellipse id="connector0pin_28_" transform="matrix(-0.7071 -0.7071 0.7071 -0.7071 2.4223 7.2014)" class="st1" cx="2.7" cy="3.1" rx="2" ry="2"/>
				
					<ellipse id="connector1pin_10_" transform="matrix(-0.7071 -0.7071 0.7071 -0.7071 51.5867 27.5663)" class="st1" cx="31.5" cy="3.1" rx="2" ry="2"/>
			</g>
		</g>
	</g>
</g>
<g>
	<g transform="translate(192.394,165.974)">
		<g transform="matrix(-1,0,0,-1,0,0)">
			<g id="copper1_52_">
				<circle id="connector0pin_29_" class="st1" cx="2.7" cy="3.1" r="2"/>
				<circle id="connector1pin_11_" class="st1" cx="31.5" cy="3.1" r="2"/>
			</g>
		</g>
	</g>
</g>
<g>
	<g transform="translate(134.794,165.974)">
		<g transform="matrix(-1,0,0,-1,0,0)">
			<g id="copper1_53_">
				<circle id="connector0pin_30_" class="st1" cx="2.7" cy="3.1" r="2"/>
				<circle id="connector1pin_12_" class="st1" cx="31.5" cy="3.1" r="2"/>
			</g>
		</g>
	</g>
</g>
<g>
	<g transform="translate(67.896,148.5)">
		<g transform="matrix(1.11022e-16,1,-1,1.11022e-16,0,0)">
			<g id="copper1_54_">
				<circle id="connector0pin_31_" class="st2" cx="2.7" cy="3.1" r="2"/>
				<circle id="connector1pin_13_" class="st2" cx="31.5" cy="3.1" r="2"/>
			</g>
		</g>
	</g>
</g>
<g>
	<g transform="translate(10.3016,172.52)">
		<g transform="matrix(0.707107,-0.707107,0.707107,0.707107,0,0)">
			<g id="copper1_55_">
				
					<ellipse id="connector0pin_32_" transform="matrix(-0.7071 -0.7071 0.7071 -0.7071 2.4223 7.2014)" class="st3" cx="2.7" cy="3.1" rx="2" ry="2"/>
				
					<ellipse id="connector1pin_14_" transform="matrix(-0.7071 -0.7071 0.7071 -0.7071 51.5867 27.5663)" class="st3" cx="31.5" cy="3.1" rx="2" ry="2"/>
			</g>
		</g>
	</g>
</g>
<g>
	<g transform="translate(119.304,211.5)">
		<g transform="matrix(0,-1,1,0,0,0)">
			<g id="copper1_56_">
				<circle id="connector0pin_33_" class="st1" cx="2.7" cy="3.1" r="2"/>
				<circle id="connector1pin_15_" class="st1" cx="31.5" cy="3.1" r="2"/>
			</g>
		</g>
	</g>
</g>
<g>
	<g transform="translate(118.296,112.5)">
		<g transform="matrix(0,1,-1,0,0,0)">
			<g id="copper1_57_">
				<circle id="connector0pin_34_" class="st1" cx="2.7" cy="3.1" r="2"/>
				<circle id="connector1pin_16_" class="st1" cx="31.5" cy="3.1" r="2"/>
			</g>
		</g>
	</g>
</g>
<g>
	<g transform="translate(176.904,211.5)">
		<g transform="matrix(0,-1,1,0,0,0)">
			<g id="copper1_58_">
				<circle id="connector0pin_35_" class="st1" cx="2.7" cy="3.1" r="2"/>
				<circle id="connector1pin_17_" class="st1" cx="31.5" cy="3.1" r="2"/>
			</g>
		</g>
	</g>
</g>
<g>
	<g transform="translate(183.096,112.5)">
		<g transform="matrix(0,1,-1,0,0,0)">
			<g id="copper1_59_">
				<circle id="connector0pin_36_" class="st1" cx="2.7" cy="3.1" r="2"/>
				<circle id="connector1pin_18_" class="st1" cx="31.5" cy="3.1" r="2"/>
			</g>
		</g>
	</g>
</g>
<g>
	<g transform="translate(191.7,212.904)">
		<g id="copper1_60_">
			<circle id="connector0pin_37_" class="st3" cx="2.7" cy="3.1" r="2"/>
			<circle id="connector1pin_19_" class="st3" cx="31.5" cy="3.1" r="2"/>
		</g>
	</g>
</g>
<g>
	<g transform="translate(233.496,112.5)">
		<g transform="matrix(0,1,-1,0,0,0)">
			<g id="copper1_61_">
				<circle id="connector0pin_38_" class="st1" cx="2.7" cy="3.1" r="2"/>
				<circle id="connector1pin_20_" class="st1" cx="31.5" cy="3.1" r="2"/>
			</g>
		</g>
	</g>
</g>
<g>
	<g transform="translate(39.672,10.872)">
		<g id="copper1_62_">
			<g id="copper0_33_">
				<circle id="connector2pad_15_" class="st1" cx="3.5" cy="17.9" r="2.5"/>
				<rect x="1" y="1" class="st1" width="5" height="5"/>
				<circle id="connector0pad_23_" class="st1" cx="3.5" cy="3.5" r="2.5"/>
				<circle id="connector1pad_23_" class="st1" cx="17.9" cy="10.7" r="2.5"/>
			</g>
		</g>
	</g>
</g>
<g>
	<g transform="translate(3.10161,143.72)">
		<g transform="matrix(0.707107,-0.707107,0.707107,0.707107,0,0)">
			<g id="copper1_63_">
				
					<ellipse id="connector0pin_39_" transform="matrix(-0.7071 -0.7071 0.7071 -0.7071 2.4223 7.2014)" class="st2" cx="2.7" cy="3.1" rx="2" ry="2"/>
				
					<ellipse id="connector1pin_21_" transform="matrix(-0.7071 -0.7071 0.7071 -0.7071 51.5867 27.5663)" class="st2" cx="31.5" cy="3.1" rx="2" ry="2"/>
			</g>
		</g>
	</g>
</g>
<g>
	<g transform="translate(9.36,30.96)">
		<g id="copper1_64_">
			<g id="copper0_34_">
				<circle id="connector0pin_40_" class="st1" cx="5" cy="5" r="2.1"/>
			</g>
		</g>
	</g>
</g>
<g>
	<g transform="translate(239.76,203.76)">
		<g id="copper1_65_">
			<g id="copper0_35_">
				<circle id="connector0pin_41_" class="st1" cx="5" cy="5" r="2.1"/>
			</g>
		</g>
	</g>
</g>
<g>
	<line class="st8" x1="16.2" y1="171.7" x2="41.6" y2="156.7"/>
</g>
<g>
	<line class="st8" x1="133.8" y1="161.7" x2="140.6" y2="156.8"/>
</g>
<g>
	<line class="st9" x1="235.6" y1="107.4" x2="207.3" y2="99.5"/>
</g>
<g>
	<line class="st8" x1="244.9" y1="79.4" x2="244.9" y2="35.9"/>
</g>
<g>
	<line class="st8" x1="244.9" y1="35.9" x2="189.5" y2="29.1"/>
</g>
<g>
	<line class="st8" x1="239.1" y1="106.5" x2="244.8" y2="100.8"/>
</g>
<g>
	<line class="st8" x1="244.8" y1="100.8" x2="244.9" y2="79.4"/>
</g>
<g>
	<line class="st8" x1="79.4" y1="72.2" x2="84.2" y2="72.1"/>
</g>
<g>
	<line class="st8" x1="74.1" y1="72.1" x2="79.4" y2="72.2"/>
</g>
<g>
	<line class="st8" x1="191.3" y1="161.6" x2="196.9" y2="156.9"/>
</g>
<g>
	<line class="st8" x1="113.5" y1="171.4" x2="104.9" y2="164.2"/>
</g>
<g>
	<line class="st8" x1="208.8" y1="199.4" x2="208.7" y2="190.3"/>
</g>
<g>
	<line class="st8" x1="151.2" y1="86.4" x2="117.3" y2="86.4"/>
</g>
<g>
	<line class="st8" x1="149.6" y1="97" x2="151.2" y2="86.4"/>
</g>
<g>
	<line class="st8" x1="28.8" y1="136.7" x2="70.4" y2="143.7"/>
</g>
<g>
	<line class="st8" x1="8.8" y1="143.5" x2="28.8" y2="136.7"/>
</g>
<g>
	<line class="st8" x1="161.8" y1="164.7" x2="164.7" y2="170.8"/>
</g>
<g>
	<line class="st8" x1="195.9" y1="214.5" x2="207.3" y2="203.1"/>
</g>
<g>
	<line class="st8" x1="213.8" y1="21.6" x2="203.9" y2="21.6"/>
</g>
<g>
	<line class="st8" x1="140.4" y1="99.2" x2="131.6" y2="100.5"/>
</g>
<g>
	<line class="st8" x1="120.2" y1="21.6" x2="110.3" y2="21.6"/>
</g>
<g>
	<line class="st8" x1="89.9" y1="99.1" x2="74.1" y2="100.6"/>
</g>
<g>
	<line class="st8" x1="117.7" y1="115.2" x2="131.7" y2="115.1"/>
</g>
<g>
	<line class="st8" x1="81.9" y1="176.2" x2="73.9" y2="179.3"/>
</g>
<g>
	<line class="st8" x1="81.8" y1="115.1" x2="74.1" y2="115.2"/>
</g>
<g>
	<line class="st8" x1="32.6" y1="116.5" x2="28.5" y2="122.3"/>
</g>
<g>
	<line class="st8" x1="188.4" y1="176.3" x2="181.9" y2="179.2"/>
</g>
<g>
	<line class="st8" x1="31.7" y1="176.5" x2="16.2" y2="186.1"/>
</g>
<g>
	<line class="st8" x1="104.3" y1="58.4" x2="113.1" y2="57.8"/>
</g>
<g>
	<line class="st8" x1="61" y1="62" x2="59.2" y2="63.5"/>
</g>
<g>
	<line class="st8" x1="63.4" y1="59.2" x2="61" y2="62"/>
</g>
<g>
	<line class="st8" x1="64.8" y1="177.9" x2="64.8" y2="172.8"/>
</g>
<g>
	<line class="st8" x1="64.8" y1="172.8" x2="77.3" y2="166.6"/>
</g>
<g>
	<line class="st8" x1="192.5" y1="78.2" x2="181.8" y2="72.9"/>
</g>
<g>
	<line class="st8" x1="154.6" y1="58.4" x2="163.5" y2="57.8"/>
</g>
<g>
	<line class="st8" x1="53.9" y1="188.2" x2="81.8" y2="188.2"/>
</g>
<g>
	<line class="st8" x1="131.7" y1="188.2" x2="104.7" y2="188.2"/>
</g>
<g>
	<line class="st8" x1="187.8" y1="188.2" x2="155" y2="188.2"/>
</g>
<g>
	<line class="st8" x1="45.1" y1="28.8" x2="91.7" y2="28.8"/>
</g>
<g>
	<line class="st8" x1="59.6" y1="93.3" x2="113.2" y2="86.7"/>
</g>
<g>
	<line class="st8" x1="182.1" y1="100.6" x2="196.4" y2="99.2"/>
</g>
<g>
	<line class="st8" x1="57.6" y1="158.4" x2="52.5" y2="156.5"/>
</g>
<g>
	<line class="st8" x1="79.2" y1="158.4" x2="57.6" y2="158.4"/>
</g>
<g>
	<line class="st8" x1="93.6" y1="165.6" x2="79.2" y2="158.4"/>
</g>
<g>
	<line class="st8" x1="98" y1="157.4" x2="93.6" y2="165.6"/>
</g>
<g>
	<line class="st8" x1="70.2" y1="21.6" x2="59.5" y2="21.6"/>
</g>
<g>
	<line class="st8" x1="187.9" y1="45.8" x2="155" y2="45.8"/>
</g>
<g>
	<line class="st8" x1="117.3" y1="144" x2="177.9" y2="144"/>
</g>
<g>
	<line class="st8" x1="113.1" y1="144" x2="74.1" y2="144"/>
</g>
<g>
	<line class="st8" x1="120.3" y1="208.8" x2="74.1" y2="208.8"/>
</g>
<g>
	<line class="st8" x1="177.9" y1="208.8" x2="124.5" y2="208.8"/>
</g>
<g>
	<line class="st8" x1="69.6" y1="209.1" x2="16.8" y2="215.7"/>
</g>
<g>
	<line class="st8" x1="7.5" y1="194.7" x2="7.5" y2="180.3"/>
</g>
<g>
	<line class="st8" x1="7.5" y1="180.3" x2="7.2" y2="165.6"/>
</g>
<g>
	<line class="st8" x1="4.3" y1="158.1" x2="6.9" y2="145.6"/>
</g>
<g>
	<line class="st8" x1="7.2" y1="165.6" x2="4.3" y2="158.1"/>
</g>
<g>
	<line class="st8" x1="7.2" y1="208.8" x2="7.5" y2="194.7"/>
</g>
<g>
	<line class="st8" x1="12.9" y1="214.5" x2="7.2" y2="208.8"/>
</g>
<g>
	<line class="st8" x1="32.8" y1="153" x2="16.5" y2="157.8"/>
</g>
<g>
	<line class="st8" x1="131.8" y1="176.3" x2="124.7" y2="179.1"/>
</g>
<g>
	<line class="st8" x1="135.4" y1="150.2" x2="100.8" y2="155.4"/>
</g>
<g>
	<line class="st8" x1="147.8" y1="147.6" x2="135.4" y2="150.2"/>
</g>
<g>
	<line class="st8" x1="149.3" y1="154" x2="147.8" y2="147.6"/>
</g>
<g>
	<line class="st8" x1="49.8" y1="188.2" x2="35.5" y2="188.2"/>
</g>
<g>
	<line class="st8" x1="100.2" y1="188.2" x2="85.9" y2="188.2"/>
</g>
<g>
	<line class="st8" x1="206.6" y1="188.2" x2="192.3" y2="188.2"/>
</g>
<g>
	<line class="st8" x1="211.7" y1="128.7" x2="228.7" y2="116.4"/>
</g>
<g>
	<line class="st8" x1="210.7" y1="128.4" x2="211.7" y2="128.7"/>
</g>
<g>
	<line class="st8" x1="223.5" y1="172.8" x2="206.8" y2="157"/>
</g>
<g>
	<line class="st8" x1="238.9" y1="182.3" x2="223.5" y2="172.8"/>
</g>
<g>
	<line class="st8" x1="230.8" y1="146" x2="238.9" y2="182.3"/>
</g>
<g>
	<line class="st8" x1="224" y1="214.1" x2="239.7" y2="179"/>
</g>
<g>
	<line class="st8" x1="214.7" y1="135.1" x2="210.1" y2="129.3"/>
</g>
<g>
	<line class="st9" x1="206.7" y1="127.7" x2="192.4" y2="127.7"/>
</g>
<g>
	<line class="st8" x1="150.5" y1="188.2" x2="136.2" y2="188.2"/>
</g>
<g>
	<line class="st8" x1="188.3" y1="115" x2="182.1" y2="115.1"/>
</g>
<g>
	<line class="st8" x1="132.2" y1="128.7" x2="132.3" y2="128.7"/>
</g>
<g>
	<line class="st8" x1="104.4" y1="127.9" x2="132.2" y2="128.7"/>
</g>
<g>
	<line class="st8" x1="188.3" y1="127.7" x2="154.7" y2="127.8"/>
</g>
<g>
	<line class="st8" x1="81.8" y1="127.9" x2="54" y2="127.9"/>
</g>
<g>
	<line class="st8" x1="49.9" y1="127.9" x2="35.6" y2="127.9"/>
</g>
<g>
	<line class="st8" x1="100.3" y1="127.9" x2="86" y2="127.9"/>
</g>
<g>
	<line class="st8" x1="150.5" y1="127.8" x2="136.2" y2="127.8"/>
</g>
<g>
	<line class="st8" x1="201.6" y1="144" x2="180" y2="151.2"/>
</g>
<g>
	<line class="st8" x1="180" y1="151.2" x2="151.2" y2="155.4"/>
</g>
<g>
	<line class="st8" x1="204.8" y1="153.8" x2="201.6" y2="144"/>
</g>
<g>
	<line class="st8" x1="150.5" y1="45.8" x2="136.1" y2="45.8"/>
</g>
<g>
	<line class="st8" x1="100.2" y1="45.8" x2="92.6" y2="45.6"/>
</g>
<g>
	<line class="st8" x1="92.6" y1="45.6" x2="85.9" y2="45.8"/>
</g>
<g>
	<line class="st8" x1="74.4" y1="45.8" x2="54.3" y2="45.8"/>
</g>
<g>
	<line class="st8" x1="81.4" y1="45.8" x2="74.4" y2="45.8"/>
</g>
<g>
	<line class="st8" x1="23.4" y1="73.2" x2="37.3" y2="82.3"/>
</g>
<g>
	<line class="st8" x1="177.8" y1="57.6" x2="167.7" y2="57.6"/>
</g>
<g>
	<line class="st8" x1="172.8" y1="36.3" x2="146.2" y2="29.4"/>
</g>
<g>
	<line class="st8" x1="122.7" y1="36.3" x2="141.9" y2="29.6"/>
</g>
<g>
	<line class="st8" x1="184.9" y1="28.8" x2="180.3" y2="28.8"/>
</g>
<g>
	<line class="st8" x1="180.3" y1="28.8" x2="172.8" y2="36.3"/>
</g>
<g>
	<line class="st9" x1="206.7" y1="45.8" x2="192.4" y2="45.8"/>
</g>
<g>
	<line class="st8" x1="95.8" y1="29.4" x2="122.7" y2="36.3"/>
</g>
<g>
	<line class="st8" x1="132" y1="45.8" x2="104.3" y2="45.8"/>
</g>
<g>
	<line class="st8" x1="225.1" y1="73" x2="235.8" y2="78.3"/>
</g>
<g>
	<line class="st8" x1="221.3" y1="70.3" x2="210.6" y2="60.3"/>
</g>
<g>
	<line class="st9" x1="170.6" y1="21.6" x2="160.7" y2="21.6"/>
</g>
<g>
	<line class="st8" x1="90.3" y1="154.4" x2="86.4" y2="151.2"/>
</g>
<g>
	<line class="st8" x1="86.4" y1="151.2" x2="66.9" y2="151.2"/>
</g>
<g>
	<line class="st8" x1="113.6" y1="87.7" x2="100.5" y2="97.8"/>
</g>
<g>
	<line class="st8" x1="56.1" y1="95.1" x2="51.8" y2="99.4"/>
</g>
<g>
	<line class="st8" x1="101.6" y1="65.4" x2="102.1" y2="60.7"/>
</g>
<g>
	<line class="st8" x1="101.1" y1="69.8" x2="101.6" y2="65.4"/>
</g>
<g>
	<line class="st8" x1="53.5" y1="59.8" x2="54.6" y2="60.6"/>
</g>
<g>
	<line class="st8" x1="54.6" y1="60.6" x2="56.4" y2="63.1"/>
</g>
<g>
	<line class="st8" x1="142.1" y1="78.2" x2="131.4" y2="72.9"/>
</g>
<g>
	<line class="st8" x1="20.7" y1="103.5" x2="41.4" y2="101"/>
</g>
<g>
	<line class="st9" x1="31.6" y1="44.9" x2="16.3" y2="37"/>
</g>
<g>
	<line class="st8" x1="49.8" y1="45.8" x2="35.5" y2="45.8"/>
</g>
<g>
	<line class="st8" x1="14.8" y1="51.4" x2="14.5" y2="38.6"/>
</g>
<g>
	<line class="st8" x1="7.3" y1="71.9" x2="14.5" y2="57.7"/>
</g>
<g>
	<line class="st8" x1="14.5" y1="57.7" x2="14.8" y2="51.4"/>
</g>
<g>
	<line class="st8" x1="7.2" y1="141.9" x2="7.3" y2="71.9"/>
</g>
<g>
	<line class="st8" x1="21.4" y1="14.5" x2="14.5" y2="21.4"/>
</g>
<g>
	<line class="st8" x1="14.5" y1="21.4" x2="14.4" y2="33.8"/>
</g>
<g>
	<line class="st8" x1="40.9" y1="14.4" x2="21.4" y2="14.5"/>
</g>
<g>
	<line class="st8" x1="91.3" y1="14.4" x2="45.5" y2="14.4"/>
</g>
<g>
	<line class="st8" x1="141.7" y1="14.4" x2="95.9" y2="14.4"/>
</g>
<g>
	<line class="st8" x1="184.9" y1="14.4" x2="146.3" y2="14.4"/>
</g>
<g>
	<line class="st8" x1="244.8" y1="115.2" x2="239.1" y2="109.5"/>
</g>
<g>
	<line class="st8" x1="244.7" y1="151.1" x2="244.8" y2="115.2"/>
</g>
<g>
	<line class="st8" x1="239.7" y1="179" x2="244.7" y2="151.1"/>
</g>
<g>
	<line class="st8" x1="238.9" y1="182.3" x2="244.3" y2="206.7"/>
</g>
<g>
	<line class="st8" x1="151.2" y1="86.4" x2="163.5" y2="86.4"/>
</g>
<g>
	<line class="st8" x1="204.8" y1="97.1" x2="201.6" y2="86.4"/>
</g>
<g>
	<line class="st8" x1="201.6" y1="86.4" x2="167.7" y2="86.4"/>
</g>
<line class="st10" x1="146.1" y1="95.6" x2="146.1" y2="102.2"/>
<line class="st10" x1="47.3" y1="97.8" x2="47.2" y2="106"/>
</svg>
