<?xml version="1.0" encoding="utf-8"?>
<!-- Generator: Adobe Illustrator 21.1.0, SVG Export Plug-In . SVG Version: 6.00 Build 0)  -->
<svg version="1.1" id="Layer_1" xmlns="http://www.w3.org/2000/svg" xmlns:xlink="http://www.w3.org/1999/xlink" x="0px" y="0px"
	 viewBox="0 0 835.4 461.2" style="enable-background:new 0 0 835.4 461.2;" xml:space="preserve">
<style type="text/css">
	.st0{fill:none;stroke:#000000;stroke-width:0.2835;}
	.st1{fill:#FFFFFF;stroke:#000000;stroke-width:0.2835;stroke-miterlimit:10;}
	.st2{fill:none;stroke:#000000;stroke-width:0.2835;stroke-miterlimit:10;}
</style>
<g transform="translate(22.5000185, 22.5000185) ">
	<polygon class="st0" points="4,-4.5 20.3,-4.5 20.3,4 28.3,4 28.3,10 24.8,10 24.8,17 28.3,17 28.3,24.1 37.1,24.1 37.1,17 
		40.6,17 40.6,10 37.1,10 37.1,4 45.1,4 45.1,-4.5 62.1,-4.5 62.1,4 79.1,4 79.1,-4.5 96.1,-4.5 96.1,4 113.1,4 113.1,-4.5 
		130.1,-4.5 130.1,4 147.2,4 147.2,-4.5 164.2,-4.5 164.2,4 181.2,4 181.2,-4.5 198.2,-4.5 198.2,4 206.2,4 206.2,10 202.6,10 
		202.6,17 206.2,17 206.2,24.1 215,24.1 215,17 218.5,17 218.5,10 215,10 215,4 223,4 223,-4.5 239.3,-4.5 239.3,23.8 247.8,23.8 
		247.8,32.8 237.3,32.8 237.3,43.3 247.8,43.3 247.8,52.2 239.3,52.2 239.3,69.2 247.8,69.2 247.8,78.1 237.3,78.1 237.3,88.6 
		247.8,88.6 247.8,97.5 239.3,97.5 239.3,125.9 223,125.9 223,117.4 215,117.4 215,111.4 218.5,111.4 218.5,104.4 215,104.4 
		215,97.3 206.2,97.3 206.2,104.4 202.6,104.4 202.6,111.4 206.2,111.4 206.2,117.4 198.2,117.4 198.2,125.9 181.2,125.9 
		181.2,117.4 164.2,117.4 164.2,125.9 147.2,125.9 147.2,117.4 130.1,117.4 130.1,125.9 113.1,125.9 113.1,117.4 96.1,117.4 
		96.1,125.9 79.1,125.9 79.1,117.4 62.1,117.4 62.1,125.9 45.1,125.9 45.1,117.4 37.1,117.4 37.1,111.4 40.6,111.4 40.6,104.4 
		37.1,104.4 37.1,97.3 28.3,97.3 28.3,104.4 24.8,104.4 24.8,111.4 28.3,111.4 28.3,117.4 20.3,117.4 20.3,125.9 4,125.9 4,97.5 
		-4.5,97.5 -4.5,88.6 6,88.6 6,78.1 -4.5,78.1 -4.5,69.2 4,69.2 4,52.2 -4.5,52.2 -4.5,43.3 6,43.3 6,32.8 -4.5,32.8 -4.5,23.8 
		4,23.8 	"/>
</g>
<g transform="translate(337.8546085, 22.5000185) ">
	<polygon class="st0" points="-59.1,-4.5 -42.8,-4.5 -42.8,4 -34.8,4 -34.8,10 -38.3,10 -38.3,17 -34.8,17 -34.8,24.1 -26,24.1 
		-26,17 -22.4,17 -22.4,10 -26,10 -26,4 -18,4 -18,-4.5 -1,-4.5 -1,4 16.1,4 16.1,-4.5 33.1,-4.5 33.1,4 50.1,4 50.1,-4.5 
		67.1,-4.5 67.1,4 84.1,4 84.1,-4.5 101.1,-4.5 101.1,4 118.1,4 118.1,-4.5 135.1,-4.5 135.1,4 143.1,4 143.1,10 139.6,10 139.6,17 
		143.1,17 143.1,24.1 151.9,24.1 151.9,17 155.4,17 155.4,10 151.9,10 151.9,4 159.9,4 159.9,-4.5 176.2,-4.5 176.2,23.8 
		184.7,23.8 184.7,32.8 174.2,32.8 174.2,43.3 184.7,43.3 184.7,52.2 176.2,52.2 176.2,69.2 184.7,69.2 184.7,78.1 174.2,78.1 
		174.2,88.6 184.7,88.6 184.7,97.5 176.2,97.5 176.2,125.9 159.9,125.9 159.9,117.4 151.9,117.4 151.9,111.4 155.4,111.4 
		155.4,104.4 151.9,104.4 151.9,97.3 143.1,97.3 143.1,104.4 139.6,104.4 139.6,111.4 143.1,111.4 143.1,117.4 135.1,117.4 
		135.1,125.9 118.1,125.9 118.1,117.4 101.1,117.4 101.1,125.9 84.1,125.9 84.1,117.4 67.1,117.4 67.1,125.9 50.1,125.9 50.1,117.4 
		33.1,117.4 33.1,125.9 16.1,125.9 16.1,117.4 -1,117.4 -1,125.9 -18,125.9 -18,117.4 -26,117.4 -26,111.4 -22.4,111.4 -22.4,104.4 
		-26,104.4 -26,97.3 -34.8,97.3 -34.8,104.4 -38.3,104.4 -38.3,111.4 -34.8,111.4 -34.8,117.4 -42.8,117.4 -42.8,125.9 -59.1,125.9 
		-59.1,97.5 -67.6,97.5 -67.6,88.6 -57.1,88.6 -57.1,78.1 -67.6,78.1 -67.6,69.2 -59.1,69.2 -59.1,52.2 -67.6,52.2 -67.6,43.3 
		-57.1,43.3 -57.1,32.8 -67.6,32.8 -67.6,23.8 -59.1,23.8 	"/>
</g>
<g transform="translate(653.2091985, 22.5000185) ">
	<polygon class="st0" points="-130.6,4 -103.7,4 -103.7,-4.5 -95.5,-4.5 -95.5,6 -85,6 -85,-4.5 -76.8,-4.5 -76.8,4 -59.8,4 
		-59.8,-4.5 -42.8,-4.5 -42.8,4 -25.8,4 -25.8,-4.5 -8.8,-4.5 -8.8,4 8.3,4 8.3,-4.5 25.3,-4.5 25.3,4 42.3,4 42.3,-4.5 59.3,-4.5 
		59.3,4 76.3,4 76.3,-4.5 93.3,-4.5 93.3,4 110.3,4 110.3,-4.5 118.5,-4.5 118.5,6 129,6 129,-4.5 137.2,-4.5 137.2,4 164.2,4 
		164.2,23.8 155.7,23.8 155.7,33.6 149.7,33.6 149.7,30.1 142.6,30.1 142.6,33.6 135.5,33.6 135.5,42.4 142.6,42.4 142.6,46 
		149.7,46 149.7,42.4 155.7,42.4 155.7,52.2 164.2,52.2 164.2,69.2 155.7,69.2 155.7,79 149.7,79 149.7,75.4 142.6,75.4 142.6,79 
		135.5,79 135.5,87.8 142.6,87.8 142.6,91.3 149.7,91.3 149.7,87.8 155.7,87.8 155.7,97.5 164.2,97.5 164.2,117.4 137.2,117.4 
		137.2,125.9 129,125.9 129,115.4 118.5,115.4 118.5,125.9 110.3,125.9 110.3,117.4 93.3,117.4 93.3,125.9 76.3,125.9 76.3,117.4 
		59.3,117.4 59.3,125.9 42.3,125.9 42.3,117.4 25.3,117.4 25.3,125.9 8.3,125.9 8.3,117.4 -8.8,117.4 -8.8,125.9 -25.8,125.9 
		-25.8,117.4 -42.8,117.4 -42.8,125.9 -59.8,125.9 -59.8,117.4 -76.8,117.4 -76.8,125.9 -85,125.9 -85,115.4 -95.5,115.4 
		-95.5,125.9 -103.7,125.9 -103.7,117.4 -130.6,117.4 -130.6,97.5 -122.1,97.5 -122.1,87.8 -116.2,87.8 -116.2,91.3 -109.1,91.3 
		-109.1,87.8 -102,87.8 -102,79 -109.1,79 -109.1,75.4 -116.2,75.4 -116.2,79 -122.1,79 -122.1,69.2 -130.6,69.2 -130.6,52.2 
		-122.1,52.2 -122.1,42.4 -116.2,42.4 -116.2,46 -109.1,46 -109.1,42.4 -102,42.4 -102,33.6 -109.1,33.6 -109.1,30.1 -116.2,30.1 
		-116.2,33.6 -122.1,33.6 -122.1,23.8 -130.6,23.8 	"/>
</g>
<g transform="translate(653.2091985, 185.4922785) ">
	<polygon class="st0" points="-130.6,-28.6 -103.7,-28.6 -103.7,-37.1 -95.5,-37.1 -95.5,-26.6 -85,-26.6 -85,-37.1 -76.8,-37.1 
		-76.8,-28.6 -59.8,-28.6 -59.8,-37.1 -42.8,-37.1 -42.8,-28.6 -25.8,-28.6 -25.8,-37.1 -8.8,-37.1 -8.8,-28.6 8.3,-28.6 8.3,-37.1 
		25.3,-37.1 25.3,-28.6 42.3,-28.6 42.3,-37.1 59.3,-37.1 59.3,-28.6 76.3,-28.6 76.3,-37.1 93.3,-37.1 93.3,-28.6 110.3,-28.6 
		110.3,-37.1 118.5,-37.1 118.5,-26.6 129,-26.6 129,-37.1 137.2,-37.1 137.2,-28.6 164.2,-28.6 164.2,-8.8 155.7,-8.8 155.7,1 
		149.7,1 149.7,-2.5 142.6,-2.5 142.6,1 135.5,1 135.5,9.8 142.6,9.8 142.6,13.4 149.7,13.4 149.7,9.8 155.7,9.8 155.7,19.6 
		164.2,19.6 164.2,36.6 155.7,36.6 155.7,46.4 149.7,46.4 149.7,42.8 142.6,42.8 142.6,46.4 135.5,46.4 135.5,55.2 142.6,55.2 
		142.6,58.7 149.7,58.7 149.7,55.2 155.7,55.2 155.7,64.9 164.2,64.9 164.2,84.8 137.2,84.8 137.2,93.3 129,93.3 129,82.8 
		118.5,82.8 118.5,93.3 110.3,93.3 110.3,84.8 93.3,84.8 93.3,93.3 76.3,93.3 76.3,84.8 59.3,84.8 59.3,93.3 42.3,93.3 42.3,84.8 
		25.3,84.8 25.3,93.3 8.3,93.3 8.3,84.8 -8.8,84.8 -8.8,93.3 -25.8,93.3 -25.8,84.8 -42.8,84.8 -42.8,93.3 -59.8,93.3 -59.8,84.8 
		-76.8,84.8 -76.8,93.3 -85,93.3 -85,82.8 -95.5,82.8 -95.5,93.3 -103.7,93.3 -103.7,84.8 -130.6,84.8 -130.6,64.9 -122.1,64.9 
		-122.1,55.2 -116.2,55.2 -116.2,58.7 -109.1,58.7 -109.1,55.2 -102,55.2 -102,46.4 -109.1,46.4 -109.1,42.8 -116.2,42.8 
		-116.2,46.4 -122.1,46.4 -122.1,36.6 -130.6,36.6 -130.6,19.6 -122.1,19.6 -122.1,9.8 -116.2,9.8 -116.2,13.4 -109.1,13.4 
		-109.1,9.8 -102,9.8 -102,1 -109.1,1 -109.1,-2.5 -116.2,-2.5 -116.2,1 -122.1,1 -122.1,-8.8 -130.6,-8.8 	"/>
</g>
<g transform="translate(22.5000185, 185.4922785) ">
	<polygon class="st0" points="-4.5,-28.6 20.3,-28.6 20.3,-37.1 27.5,-37.1 27.5,-26.6 37.9,-26.6 37.9,-37.1 45.1,-37.1 
		45.1,-28.6 62.1,-28.6 62.1,-37.1 79.1,-37.1 79.1,-28.6 96.1,-28.6 96.1,-37.1 113.1,-37.1 113.1,-28.6 130.1,-28.6 130.1,-37.1 
		147.2,-37.1 147.2,-28.6 164.2,-28.6 164.2,-37.1 181.2,-37.1 181.2,-28.6 198.2,-28.6 198.2,-37.1 205.3,-37.1 205.3,-26.6 
		215.8,-26.6 215.8,-37.1 223,-37.1 223,-28.6 247.8,-28.6 247.8,-10.2 239.3,-10.2 239.3,-1.1 233.3,-1.1 233.3,-4.6 226.2,-4.6 
		226.2,-1.1 219.2,-1.1 219.2,7.7 226.2,7.7 226.2,11.2 233.3,11.2 233.3,7.7 239.3,7.7 239.3,16.8 247.8,16.8 247.8,33.8 
		239.3,33.8 239.3,50.8 247.8,50.8 247.8,67.8 239.3,67.8 239.3,84.8 247.8,84.8 247.8,101.8 239.3,101.8 239.3,118.8 247.8,118.8 
		247.8,135.8 239.3,135.8 239.3,152.8 247.8,152.8 247.8,169.8 239.3,169.8 239.3,186.8 247.8,186.8 247.8,203.8 239.3,203.8 
		239.3,212.9 233.3,212.9 233.3,209.4 226.2,209.4 226.2,212.9 219.2,212.9 219.2,221.7 226.2,221.7 226.2,225.2 233.3,225.2 
		233.3,221.7 239.3,221.7 239.3,230.8 247.8,230.8 247.8,249.2 223,249.2 223,257.7 215.8,257.7 215.8,247.2 205.3,247.2 
		205.3,257.7 198.2,257.7 198.2,249.2 181.2,249.2 181.2,257.7 164.2,257.7 164.2,249.2 147.2,249.2 147.2,257.7 130.1,257.7 
		130.1,249.2 113.1,249.2 113.1,257.7 96.1,257.7 96.1,249.2 79.1,249.2 79.1,257.7 62.1,257.7 62.1,249.2 45.1,249.2 45.1,257.7 
		37.9,257.7 37.9,247.2 27.5,247.2 27.5,257.7 20.3,257.7 20.3,249.2 -4.5,249.2 -4.5,230.8 4,230.8 4,221.7 10,221.7 10,225.2 
		17,225.2 17,221.7 24.1,221.7 24.1,212.9 17,212.9 17,209.4 10,209.4 10,212.9 4,212.9 4,203.8 -4.5,203.8 -4.5,186.8 4,186.8 
		4,169.8 -4.5,169.8 -4.5,152.8 4,152.8 4,135.8 -4.5,135.8 -4.5,118.8 4,118.8 4,101.8 -4.5,101.8 -4.5,84.8 4,84.8 4,67.8 
		-4.5,67.8 -4.5,50.8 4,50.8 4,33.8 -4.5,33.8 -4.5,16.8 4,16.8 4,7.7 10,7.7 10,11.2 17,11.2 17,7.7 24.1,7.7 24.1,-1.1 17,-1.1 
		17,-4.6 10,-4.6 10,-1.1 4,-1.1 4,-10.2 -4.5,-10.2 	"/>
</g>
<g transform="translate(337.8546085, 185.4922785) ">
	<polygon class="st0" points="-67.6,-28.6 -42.8,-28.6 -42.8,-37.1 -35.6,-37.1 -35.6,-26.6 -25.1,-26.6 -25.1,-37.1 -18,-37.1 
		-18,-28.6 -1,-28.6 -1,-37.1 16.1,-37.1 16.1,-28.6 33.1,-28.6 33.1,-37.1 50.1,-37.1 50.1,-28.6 67.1,-28.6 67.1,-37.1 
		84.1,-37.1 84.1,-28.6 101.1,-28.6 101.1,-37.1 118.1,-37.1 118.1,-28.6 135.1,-28.6 135.1,-37.1 142.3,-37.1 142.3,-26.6 
		152.8,-26.6 152.8,-37.1 159.9,-37.1 159.9,-28.6 184.7,-28.6 184.7,-10.2 176.2,-10.2 176.2,-1.1 170.3,-1.1 170.3,-4.6 
		163.2,-4.6 163.2,-1.1 156.1,-1.1 156.1,7.7 163.2,7.7 163.2,11.2 170.3,11.2 170.3,7.7 176.2,7.7 176.2,16.8 184.7,16.8 
		184.7,33.8 176.2,33.8 176.2,50.8 184.7,50.8 184.7,67.8 176.2,67.8 176.2,84.8 184.7,84.8 184.7,101.8 176.2,101.8 176.2,118.8 
		184.7,118.8 184.7,135.8 176.2,135.8 176.2,152.8 184.7,152.8 184.7,169.8 176.2,169.8 176.2,186.8 184.7,186.8 184.7,203.8 
		176.2,203.8 176.2,212.9 170.3,212.9 170.3,209.4 163.2,209.4 163.2,212.9 156.1,212.9 156.1,221.7 163.2,221.7 163.2,225.2 
		170.3,225.2 170.3,221.7 176.2,221.7 176.2,230.8 184.7,230.8 184.7,249.2 159.9,249.2 159.9,257.7 152.8,257.7 152.8,247.2 
		142.3,247.2 142.3,257.7 135.1,257.7 135.1,249.2 118.1,249.2 118.1,257.7 101.1,257.7 101.1,249.2 84.1,249.2 84.1,257.7 
		67.1,257.7 67.1,249.2 50.1,249.2 50.1,257.7 33.1,257.7 33.1,249.2 16.1,249.2 16.1,257.7 -1,257.7 -1,249.2 -18,249.2 -18,257.7 
		-25.1,257.7 -25.1,247.2 -35.6,247.2 -35.6,257.7 -42.8,257.7 -42.8,249.2 -67.6,249.2 -67.6,230.8 -59.1,230.8 -59.1,221.7 
		-53.1,221.7 -53.1,225.2 -46,225.2 -46,221.7 -38.9,221.7 -38.9,212.9 -46,212.9 -46,209.4 -53.1,209.4 -53.1,212.9 -59.1,212.9 
		-59.1,203.8 -67.6,203.8 -67.6,186.8 -59.1,186.8 -59.1,169.8 -67.6,169.8 -67.6,152.8 -59.1,152.8 -59.1,135.8 -67.6,135.8 
		-67.6,118.8 -59.1,118.8 -59.1,101.8 -67.6,101.8 -67.6,84.8 -59.1,84.8 -59.1,67.8 -67.6,67.8 -67.6,50.8 -59.1,50.8 -59.1,33.8 
		-67.6,33.8 -67.6,16.8 -59.1,16.8 -59.1,7.7 -53.1,7.7 -53.1,11.2 -46,11.2 -46,7.7 -38.9,7.7 -38.9,-1.1 -46,-1.1 -46,-4.6 
		-53.1,-4.6 -53.1,-1.1 -59.1,-1.1 -59.1,-10.2 -67.6,-10.2 	"/>
</g>
<rect x="331" y="104" class="st1" width="41" height="24"/>
<circle class="st1" cx="587.2" cy="75.6" r="9.9"/>
<line class="st2" x1="26.5" y1="389.3" x2="261.8" y2="389.3"/>
<line class="st0" x1="26.5" y1="175.3" x2="261.8" y2="175.3"/>
</svg>
